# xmcd CD database file
#
# Track frame offsets:
#	150
#	13055
#	36077
#	56280
#	75755
#	99547
#	119772
#	163090
#	182322
#
# Disc length: 2628 seconds
#
# Revision: 0
# Processed by: cddbd v1.4PL0 Copyright (c) Steve Scherf et al.
# Submitted via: CDex 1.51
#
DISCID=620a4209
DTITLE=Michael Gray - Emergence
DYEAR=1900
DGENRE=New Age
TTITLE0=Morning Hymn
TTITLE1=Introspection
TTITLE2=Garden Path
TTITLE3=The Shores of Paradise
TTITLE4=Noah's Waltz
TTITLE5=From You to You
TTITLE6=Evening Rain
TTITLE7=Emergence
TTITLE8=Clara's Lullaby
EXTD=
EXTT0=
EXTT1=
EXTT2=
EXTT3=
EXTT4=
EXTT5=
EXTT6=
EXTT7=
EXTT8=
PLAYORDER=
